<svg id="Layer_1" data-name="Layer 1" xmlns="http://www.w3.org/2000/svg" viewBox="0 0 81.93 98.08"><defs><style>.cls-1{stroke:#000;stroke-width:5px;}.cls-1,.cls-2{stroke-miterlimit:10;}.cls-2{fill:#2d8fff;stroke:#2d8fff;stroke-width:2px;}</style></defs><path class="cls-1" d="M86.68,89.68a4.7,4.7,0,0,1-3.14,5.87l-.07,0a87,87,0,0,1-22.66,2.73C31.81,98.31,10,82.24,10,52.65,10,24.4,31.82,5.25,63.71,5.25A74.36,74.36,0,0,1,83.41,7.6a4.75,4.75,0,0,1,3.35,5.82,2.76,2.76,0,0,1-.08.27l-.18.53a4.74,4.74,0,0,1-5.84,3A58.63,58.63,0,0,0,64.21,15C40.1,15,24.08,28.53,24.08,52.23c0,22.09,14.5,36.28,39.52,36.28A67,67,0,0,0,80.8,86.3a4.78,4.78,0,0,1,5.88,3.2Z" transform="translate(-7.5 -2.74)"/><circle class="cls-2" cx="61.2" cy="51.64" r="17.74" transform="translate(-10.92 96.18) rotate(-76.35)"/></svg>