<svg id="Layer_1" data-name="Layer 1" xmlns="http://www.w3.org/2000/svg" viewBox="0 0 616.47 98.05"><defs><style>.cls-1,.cls-2{fill:#fff;stroke:#fff;}.cls-1,.cls-2,.cls-3{stroke-miterlimit:10;}.cls-1,.cls-3{stroke-width:2px;}.cls-2{stroke-width:5px;}.cls-3{fill:#2d8fff;stroke:#2d8fff;}</style></defs><path class="cls-1" d="M292.56,69.09h-31l10-26.1c2-5.5,3.69-11,5.2-16.32h.29c1.56,5.21,3.07,10.58,5.37,16.44Z" transform="translate(-14.05 -12.37)"/><path class="cls-2" d="M21.37,16.35H67.12a4.82,4.82,0,0,1,4.82,4.82v.13a4.82,4.82,0,0,1-4.82,4.82H34.65a4.82,4.82,0,0,0-4.82,4.82V51.29a4.82,4.82,0,0,0,4.82,4.82H63.91a4.82,4.82,0,0,1,4.82,4.82h0a4.82,4.82,0,0,1-4.82,4.82H34.65a4.82,4.82,0,0,0-4.82,4.82v31.2A4.82,4.82,0,0,1,25,106.59H21.37a4.82,4.82,0,0,1-4.82-4.82V21.17A4.82,4.82,0,0,1,21.37,16.35Z" transform="translate(-14.05 -12.37)"/><path class="cls-2" d="M119.38,23v77a6.64,6.64,0,0,1-6.64,6.64h0A6.65,6.65,0,0,1,106.1,100V23a6.64,6.64,0,0,1,6.64-6.63h0A6.63,6.63,0,0,1,119.38,23Z" transform="translate(-14.05 -12.37)"/><path class="cls-2" d="M179.64,100.38V70.08a6.14,6.14,0,0,0-.94-3.29L153.08,25.84a6.2,6.2,0,0,1,5.26-9.49h.34A6.19,6.19,0,0,1,164,19.43l12.7,21.82c4,6.83,7,12.32,10.23,18.61h.3c2.9-5.89,6.41-11.78,10.38-18.61l13-21.87a6.21,6.21,0,0,1,5.34-3h0A6.2,6.2,0,0,1,221.14,26l-27,40.62a6.18,6.18,0,0,0-1,3.44v30.34a6.21,6.21,0,0,1-6.2,6.21h-1A6.21,6.21,0,0,1,179.64,100.38Z" transform="translate(-14.05 -12.37)"/><path class="cls-2" d="M281,16.35h-7.29a6.4,6.4,0,0,0-6,4.07l-30,77.49a6.37,6.37,0,0,0,5.95,8.68h0a6.38,6.38,0,0,0,6-4.13l7.58-20.14a6.4,6.4,0,0,1,6-4.13h27.68a6.37,6.37,0,0,1,5.95,4.08l7.83,20.24a6.38,6.38,0,0,0,6,4.08h.48a6.38,6.38,0,0,0,5.95-8.69L287,20.42A6.38,6.38,0,0,0,281,16.35ZM270.87,69.09a6.38,6.38,0,0,1-6-8.67L271.62,43c2-5.5,3.69-11,5.2-16.32h.29c1.56,5.21,3.07,10.58,5.37,16.44l6.71,17.29a6.38,6.38,0,0,1-5.95,8.69Z" transform="translate(-14.05 -12.37)"/><path class="cls-2" d="M350.81,100.33V22.6a6.25,6.25,0,0,1,6.25-6.25h5.05a6.25,6.25,0,0,1,5.07,2.59L398.26,62a249,249,0,0,1,18.47,29.32l.3-.13a352.67,352.67,0,0,1-1.52-37.09V22.6a6.25,6.25,0,0,1,6.25-6.25h0A6.25,6.25,0,0,1,428,22.6v77.73a6.26,6.26,0,0,1-6.26,6.26h-3.95a6.24,6.24,0,0,1-5.09-2.63L381.94,60.8a277.06,277.06,0,0,1-19.23-30.13l-.46.14C363,42.19,363.32,53,363.32,68v32.3a6.26,6.26,0,0,1-6.26,6.26h0A6.25,6.25,0,0,1,350.81,100.33Z" transform="translate(-14.05 -12.37)"/><path class="cls-2" d="M537,99.3a4.71,4.71,0,0,1-3.21,5.9,86.34,86.34,0,0,1-22.66,2.73c-29,0-50.81-16.07-50.81-45.66,0-28.25,21.82-47.4,53.71-47.4a74.32,74.32,0,0,1,19.7,2.35A4.75,4.75,0,0,1,537,23.31l-.18.53a4.73,4.73,0,0,1-5.84,3,58.82,58.82,0,0,0-16.45-2.21c-24.11,0-40.13,13.52-40.13,37.22,0,22.09,14.5,36.28,39.52,36.28a66.5,66.5,0,0,0,17.2-2.21,4.78,4.78,0,0,1,5.88,3.2Z" transform="translate(-14.05 -12.37)"/><path class="cls-2" d="M618.62,64.28H588.28a4.82,4.82,0,0,0-4.82,4.82V92a4.82,4.82,0,0,0,4.82,4.82H623.2a4.82,4.82,0,0,1,4.82,4.82v.14a4.82,4.82,0,0,1-4.82,4.82H575a4.82,4.82,0,0,1-4.82-4.82V21.17A4.82,4.82,0,0,1,575,16.35h45.9a4.82,4.82,0,0,1,4.82,4.82v.13a4.82,4.82,0,0,1-4.82,4.82H588.28a4.82,4.82,0,0,0-4.82,4.82V49.82a4.82,4.82,0,0,0,4.82,4.82h30.34a4.82,4.82,0,0,1,4.82,4.82h0A4.82,4.82,0,0,1,618.62,64.28Z" transform="translate(-14.05 -12.37)"/><circle class="cls-3" cx="497.47" cy="48.89" r="17.74"/></svg>